<?xml version="1.0" encoding="utf-8"?>
<!-- Generator: Adobe Illustrator 21.0.0, SVG Export Plug-In . SVG Version: 6.00 Build 0)  -->
<svg version="1.1" id="Ebene_1" xmlns="http://www.w3.org/2000/svg" xmlns:xlink="http://www.w3.org/1999/xlink" x="0px" y="0px"
	 viewBox="0 0 1160 1008" style="enable-background:new 0 0 1160 1008;" xml:space="preserve">
<style type="text/css">
	.st0{fill:url(#SVGID_1_);}
	.st1{fill:url(#SVGID_2_);}
	.st2{fill:url(#SVGID_3_);}
	.st3{fill:url(#SVGID_4_);}
	.st4{fill:url(#SVGID_5_);}
	.st5{fill:url(#SVGID_6_);}
</style>
<linearGradient id="SVGID_1_" gradientUnits="userSpaceOnUse" x1="1162.6752" y1="782.5144" x2="147.7534" y2="-463.9133" gradientTransform="matrix(-0.5 -0.866 0.866 -0.5 436.8525 1256.8213)">
	<stop  offset="0" style="stop-color:#334F66"/>
	<stop  offset="1" style="stop-color:#5A8AB2"/>
</linearGradient>
<polygon class="st0" points="270.6,351.2 377.7,175.2 288.8,21.4 12.3,500.4 565.4,500.4 476.6,346.6 "/>
<linearGradient id="SVGID_2_" gradientUnits="userSpaceOnUse" x1="590.8035" y1="745.9129" x2="1143.9452" y2="745.9129" gradientTransform="matrix(-0.5 -0.866 0.866 -0.5 436.8525 1256.8213)">
	<stop  offset="0" style="stop-color:#334F66"/>
	<stop  offset="1" style="stop-color:#5A8AB2"/>
</linearGradient>
<polygon class="st1" points="389.5,162.1 598.2,162.1 493.9,342.8 580,492 856.6,12.9 303.4,12.9 "/>
<linearGradient id="SVGID_3_" gradientUnits="userSpaceOnUse" x1="285.0195" y1="504.0107" x2="289.1693" y2="985.394" gradientTransform="matrix(-0.5 -0.866 0.866 -0.5 436.8525 1256.8213)">
	<stop  offset="0" style="stop-color:#E39517"/>
	<stop  offset="0.2009" style="stop-color:#E3971B"/>
	<stop  offset="0.4112" style="stop-color:#E59C28"/>
	<stop  offset="0.6259" style="stop-color:#E7A53D"/>
	<stop  offset="0.8423" style="stop-color:#EAB25A"/>
	<stop  offset="1" style="stop-color:#EDBD74"/>
</linearGradient>
<polyline class="st2" points="594.6,517.3 871.2,996.3 1147.7,517.3 975.5,517.3 871.2,698 766.8,517.3 "/>
<linearGradient id="SVGID_4_" gradientUnits="userSpaceOnUse" x1="572.0863" y1="514.8694" x2="576.2362" y2="996.2527" gradientTransform="matrix(-0.5 -0.866 0.866 -0.5 436.8525 1256.8213)">
	<stop  offset="0" style="stop-color:#E39517"/>
	<stop  offset="0.2009" style="stop-color:#E3971B"/>
	<stop  offset="0.4112" style="stop-color:#E59C28"/>
	<stop  offset="0.6259" style="stop-color:#E7A53D"/>
	<stop  offset="0.8423" style="stop-color:#EAB25A"/>
	<stop  offset="1" style="stop-color:#EDBD74"/>
</linearGradient>
<polyline class="st3" points="766.8,500.4 871.2,319.7 975.5,500.4 1147.7,500.4 871.2,21.4 594.6,500.4 "/>
<linearGradient id="SVGID_5_" gradientUnits="userSpaceOnUse" x1="280.9141" y1="10.5439" x2="285.064" y2="491.9274" gradientTransform="matrix(-0.5 -0.866 0.866 -0.5 436.8525 1256.8213)">
	<stop  offset="0" style="stop-color:#E39517"/>
	<stop  offset="0.2009" style="stop-color:#E3971B"/>
	<stop  offset="0.4112" style="stop-color:#E59C28"/>
	<stop  offset="0.6259" style="stop-color:#E7A53D"/>
	<stop  offset="0.8423" style="stop-color:#EAB25A"/>
	<stop  offset="1" style="stop-color:#EDBD74"/>
</linearGradient>
<polygon class="st4" points="492.4,677.4 593.4,852.3 391.4,852.3 303.4,1004.7 856.6,1004.7 580,525.7 "/>
<linearGradient id="SVGID_6_" gradientUnits="userSpaceOnUse" x1="306.3194" y1="357.1489" x2="310.4692" y2="838.5324" gradientTransform="matrix(0.5 0.866 -0.866 0.5 719.4502 69.8372)">
	<stop  offset="0" style="stop-color:#E39517"/>
	<stop  offset="0.2009" style="stop-color:#E3971B"/>
	<stop  offset="0.4112" style="stop-color:#E59C28"/>
	<stop  offset="0.6259" style="stop-color:#E7A53D"/>
	<stop  offset="0.8423" style="stop-color:#EAB25A"/>
	<stop  offset="1" style="stop-color:#EDBD74"/>
</linearGradient>
<polygon class="st5" points="376.4,844.6 275.4,669.6 477.4,669.6 565.4,517.3 12.3,517.3 288.8,996.3 "/>
</svg>
