<?xml version="1.0" encoding="utf-8"?>
<!-- Generator: Adobe Illustrator 21.0.0, SVG Export Plug-In . SVG Version: 6.00 Build 0)  -->
<svg version="1.1" id="Ebene_1" xmlns="http://www.w3.org/2000/svg" xmlns:xlink="http://www.w3.org/1999/xlink" x="0px" y="0px"
	 viewBox="0 0 1126.9 1312.8" style="enable-background:new 0 0 1126.9 1312.8;" xml:space="preserve">
<style type="text/css">
	.st0{fill:none;}
	.st1{fill:#E39517;}
	.st2{font-family:'Comfortaa-Light';}
	.st3{font-size:249.921px;}
	.st4{letter-spacing:-14;}
	.st5{fill:#5A8AB2;}
	.st6{fill:url(#SVGID_1_);}
	.st7{fill:url(#SVGID_2_);}
	.st8{fill:url(#SVGID_3_);}
	.st9{fill:url(#SVGID_4_);}
	.st10{fill:url(#SVGID_5_);}
	.st11{fill:url(#SVGID_6_);}
</style>
<rect x="1.5" y="1055.5" class="st0" width="1113" height="245.9"/>
<text transform="matrix(1 0 0 1 13.0666 1250.6589)"><tspan x="0" y="0" class="st1 st2 st3 st4">ambr</tspan><tspan x="634.5" y="0" class="st5 st2 st3 st4">pay</tspan></text>
<linearGradient id="SVGID_1_" gradientUnits="userSpaceOnUse" x1="1395.0576" y1="1260.6494" x2="404.6363" y2="44.3108" gradientTransform="matrix(-0.5 -0.866 0.866 -0.5 124.0931 1702.2449)">
	<stop  offset="0" style="stop-color:#334F66"/>
	<stop  offset="1" style="stop-color:#5A8AB2"/>
</linearGradient>
<polygon class="st6" points="262.1,344.5 366.5,172.7 279.9,22.5 10,490 549.8,490 463.1,339.9 "/>
<linearGradient id="SVGID_2_" gradientUnits="userSpaceOnUse" x1="836.991" y1="1224.9314" x2="1376.7797" y2="1224.9314" gradientTransform="matrix(-0.5 -0.866 0.866 -0.5 124.0931 1702.2449)">
	<stop  offset="0" style="stop-color:#334F66"/>
	<stop  offset="1" style="stop-color:#5A8AB2"/>
</linearGradient>
<polygon class="st7" points="378.1,159.9 581.8,159.9 480,336.2 564,481.8 833.9,14.3 294.1,14.3 "/>
<linearGradient id="SVGID_3_" gradientUnits="userSpaceOnUse" x1="538.5887" y1="988.8688" x2="542.6384" y2="1458.6315" gradientTransform="matrix(-0.5 -0.866 0.866 -0.5 124.0931 1702.2449)">
	<stop  offset="0" style="stop-color:#E39517"/>
	<stop  offset="0.2009" style="stop-color:#E3971B"/>
	<stop  offset="0.4112" style="stop-color:#E59C28"/>
	<stop  offset="0.6259" style="stop-color:#E7A53D"/>
	<stop  offset="0.8423" style="stop-color:#EAB25A"/>
	<stop  offset="1" style="stop-color:#EDBD74"/>
</linearGradient>
<polyline class="st8" points="578.2,506.5 848.1,973.9 1118,506.5 950,506.5 848.1,682.8 746.3,506.5 "/>
<linearGradient id="SVGID_4_" gradientUnits="userSpaceOnUse" x1="818.7257" y1="999.4655" x2="822.7754" y2="1469.228" gradientTransform="matrix(-0.5 -0.866 0.866 -0.5 124.0931 1702.2449)">
	<stop  offset="0" style="stop-color:#E39517"/>
	<stop  offset="0.2009" style="stop-color:#E3971B"/>
	<stop  offset="0.4112" style="stop-color:#E59C28"/>
	<stop  offset="0.6259" style="stop-color:#E7A53D"/>
	<stop  offset="0.8423" style="stop-color:#EAB25A"/>
	<stop  offset="1" style="stop-color:#EDBD74"/>
</linearGradient>
<polyline class="st9" points="746.3,490 848.1,313.6 950,490 1118,490 848.1,22.5 578.2,490 "/>
<linearGradient id="SVGID_5_" gradientUnits="userSpaceOnUse" x1="534.5825" y1="507.3144" x2="538.6321" y2="977.0772" gradientTransform="matrix(-0.5 -0.866 0.866 -0.5 124.0931 1702.2449)">
	<stop  offset="0" style="stop-color:#E39517"/>
	<stop  offset="0.2009" style="stop-color:#E3971B"/>
	<stop  offset="0.4112" style="stop-color:#E59C28"/>
	<stop  offset="0.6259" style="stop-color:#E7A53D"/>
	<stop  offset="0.8423" style="stop-color:#EAB25A"/>
	<stop  offset="1" style="stop-color:#EDBD74"/>
</linearGradient>
<polygon class="st10" points="478.5,662.8 577.1,833.5 379.9,833.5 294.1,982.2 833.9,982.2 564,514.7 "/>
<linearGradient id="SVGID_6_" gradientUnits="userSpaceOnUse" x1="4.2853" y1="497.7325" x2="8.335" y2="967.4953" gradientTransform="matrix(0.5 0.866 -0.866 0.5 976.6157 250.409)">
	<stop  offset="0" style="stop-color:#E39517"/>
	<stop  offset="0.2009" style="stop-color:#E3971B"/>
	<stop  offset="0.4112" style="stop-color:#E59C28"/>
	<stop  offset="0.6259" style="stop-color:#E7A53D"/>
	<stop  offset="0.8423" style="stop-color:#EAB25A"/>
	<stop  offset="1" style="stop-color:#EDBD74"/>
</linearGradient>
<polygon class="st11" points="365.3,825.9 266.8,655.1 463.9,655.1 549.8,506.5 10,506.5 279.9,973.9 "/>
</svg>
